<?xml version="1.0" standalone="no"?>
<!DOCTYPE svg PUBLIC "-//W3C//DTD SVG 20010904//EN"
 "http://www.w3.org/TR/2001/REC-SVG-20010904/DTD/svg10.dtd">
<svg version="1.0" xmlns="http://www.w3.org/2000/svg"
 width="2133.000000pt" height="2133.000000pt" viewBox="0 0 2133.000000 2133.000000"
 preserveAspectRatio="xMidYMid meet">

<g transform="translate(0.000000,2133.000000) scale(0.100000,-0.100000)"
fill="#000000" stroke="none">
<path d="M3503 14980 c-22 -9 -28 -24 -23 -65 3 -30 3507 -7019 3529 -7039 31
-28 58 -12 91 54 17 33 30 67 30 75 0 9 -786 1584 -1746 3500 l-1746 3485 -56
-1 c-32 0 -67 -4 -79 -9z"/>
<path d="M16165 14976 c-17 -7 -36 -20 -42 -28 -7 -8 -605 -1197 -1329 -2643
l-1317 -2628 27 -55 28 -56 80 155 c86 167 2565 5117 2610 5211 l27 58 -27 0
c-15 -1 -41 -7 -57 -14z"/>
<path d="M11403 13278 c-12 -13 -193 -366 -402 -786 -310 -620 -381 -770 -381
-802 0 -32 30 -99 144 -323 79 -155 687 -1364 1352 -2687 708 -1410 1220
-2417 1236 -2433 23 -23 31 -26 48 -17 21 11 80 106 80 129 0 8 -612 1231
-1360 2718 l-1360 2703 359 718 c197 394 361 727 365 739 5 15 1 28 -13 42
-27 27 -43 26 -68 -1z"/>
</g>
</svg>
